<svg xmlns="http://www.w3.org/2000/svg" width="179" height="53" viewBox="0 0 179 53" fill="none"><path d="M78.4287 2.31001C78.1315 1.88711 77.6926 1.58589 77.1899 1.46022L71.3151 0H66.9664L68.8256 2.18634C69.1168 2.52945 69.5278 2.75087 69.9746 2.80872C70.579 2.88652 71.1316 3.18774 71.5266 3.65054L82.1849 16.182C83.0208 17.1655 83.0208 18.6098 82.1849 19.5932L71.6323 32.001C71.1655 32.5496 70.5312 32.9286 69.829 33.0802L69.7512 33.0962C69.3622 33.18 69.0111 33.3894 68.7518 33.6927L66.2842 36.5931H70.6329L77.0962 34.3589C77.6627 34.1634 78.1514 33.7944 78.4965 33.3037L88.2811 19.3678C88.9175 18.4601 88.9175 17.2493 88.2811 16.3416L78.4287 2.30802V2.31001Z" fill="url(#paint0_linear_67_177)"></path><path d="M110.246 33.6867C109.993 33.3874 109.646 33.18 109.263 33.0982L109.177 33.0802C108.473 32.9286 107.84 32.5496 107.374 32.001L96.821 19.5932C95.9852 18.6098 95.9852 17.1655 96.821 16.182L107.479 3.65054C107.874 3.18574 108.427 2.88652 109.031 2.80872H109.041C109.482 2.75087 109.885 2.53144 110.172 2.19431L112.038 0H107.689L101.814 1.46022C101.313 1.58589 100.873 1.88711 100.575 2.31001L90.7229 16.3436C90.0865 17.2513 90.0865 18.4621 90.7229 19.3698L100.507 33.3057C100.851 33.7964 101.341 34.1654 101.908 34.3609L108.371 36.5951H112.72L110.246 33.6887V33.6867Z" fill="url(#paint1_linear_67_177)"></path><path d="M0 3.59665H4.41056L19.278 25.0989V3.59665H24.0656V32.9944H19.6132L4.78759 11.576V32.9944H0V3.59665Z" fill="white"></path><path d="M39.1625 32.009C38.5042 31.3507 38.175 30.4909 38.175 29.4257V3.59665H59.7192V7.83766H43.0883V15.817H58.4605V20.0999H43.0883V28.7514H59.7192V32.9924H41.7857C40.6945 32.9924 39.8188 32.6633 39.1605 32.005L39.1625 32.009Z" fill="white"></path><path d="M123.101 50.8102H120.691L120.129 52.3104H119.079L121.437 46.2441H121.896C122.207 46.2441 122.425 46.3977 122.546 46.7029L124.713 52.3104H123.655L123.101 50.8102ZM120.978 49.9604H122.816L121.906 47.4988H121.898L120.978 49.9604Z" fill="white"></path><path d="M127.122 46.2421H128.032L131.1 50.6786V46.2421H132.088V52.3084H131.168L128.108 47.8879V52.3084H127.12V46.2421H127.122Z" fill="white"></path><path d="M138.519 50.8102H136.109L135.547 52.3104H134.497L136.855 46.2441H137.314C137.625 46.2441 137.843 46.3977 137.964 46.7029L140.131 52.3104H139.073L138.519 50.8102ZM136.396 49.9604H138.234L137.324 47.4988H137.316L136.396 49.9604Z" fill="white"></path><path d="M142.688 52.1109C142.554 51.9772 142.489 51.8017 142.489 51.5822V46.2441H143.502V51.4266H146.795V52.3104H143.233C143.001 52.3104 142.82 52.2445 142.686 52.1109H142.688Z" fill="white"></path><path d="M150.097 49.9605L147.853 46.2421H148.954L150.6 49.0329L152.245 46.2421H153.347L151.102 49.9605V52.3084H150.097V49.9605Z" fill="white"></path><path d="M157.194 47.1179H155.269V46.2421H160.131V47.1179H158.206V52.3084H157.192V47.1179H157.194Z" fill="white"></path><path d="M162.698 46.2421H163.712V52.3084H162.698V46.2421Z" fill="white"></path><path d="M167.56 52.0969C167.236 51.9094 166.985 51.6441 166.806 51.299C166.626 50.9559 166.536 50.5589 166.536 50.1081V48.4444C166.536 47.9936 166.628 47.5966 166.81 47.2535C166.991 46.9104 167.246 46.6431 167.576 46.4556C167.905 46.268 168.286 46.1743 168.719 46.1743H169.638C170.049 46.1743 170.412 46.2621 170.729 46.4376C171.047 46.6131 171.292 46.8625 171.465 47.1837C171.639 47.5048 171.725 47.8759 171.725 48.2968H170.727C170.727 47.9277 170.626 47.6285 170.424 47.4051C170.223 47.1797 169.959 47.068 169.636 47.068H168.717C168.364 47.068 168.08 47.1976 167.867 47.457C167.653 47.7163 167.546 48.0574 167.546 48.4803V50.0742C167.546 50.5011 167.649 50.8442 167.857 51.1015C168.064 51.3588 168.34 51.4865 168.681 51.4865H169.616C169.951 51.4865 170.223 51.3588 170.43 51.1055C170.638 50.8522 170.741 50.521 170.741 50.1181H171.739C171.739 50.5689 171.651 50.9639 171.475 51.305C171.3 51.6461 171.051 51.9094 170.729 52.0969C170.408 52.2844 170.037 52.3782 169.616 52.3782H168.681C168.254 52.3782 167.877 52.2844 167.554 52.0969H167.56Z" fill="white"></path><path d="M174.641 51.8596C174.294 51.5125 174.121 51.0397 174.121 50.4392H175.118C175.118 50.7624 175.204 51.0177 175.373 51.2053C175.543 51.3928 175.778 51.4865 176.08 51.4865H177.041C177.324 51.4865 177.552 51.4247 177.725 51.301C177.899 51.1773 177.985 51.0138 177.985 50.8123V50.4313C177.985 50.2757 177.925 50.146 177.803 50.0423C177.682 49.9385 177.508 49.8667 177.283 49.8248L175.705 49.5555C175.214 49.4737 174.837 49.3122 174.574 49.0708C174.31 48.8294 174.179 48.5182 174.179 48.1432V47.6664C174.179 47.3712 174.258 47.1119 174.416 46.8865C174.576 46.661 174.799 46.4875 175.088 46.3618C175.377 46.2381 175.713 46.1763 176.094 46.1763H177.073C177.432 46.1763 177.747 46.2501 178.023 46.3977C178.296 46.5453 178.509 46.7548 178.659 47.0261C178.809 47.2974 178.884 47.6106 178.884 47.9617H177.897C177.897 47.6963 177.821 47.4809 177.668 47.3153C177.514 47.1498 177.316 47.068 177.073 47.068H176.094C175.822 47.068 175.605 47.1278 175.439 47.2455C175.274 47.3632 175.192 47.5248 175.192 47.7263V48.0375C175.192 48.199 175.25 48.3327 175.365 48.4404C175.481 48.5481 175.649 48.618 175.868 48.6519L177.446 48.9292C177.943 49.0149 178.326 49.1765 178.595 49.4099C178.864 49.6433 178.998 49.9425 178.998 50.3076V50.8701C178.998 51.1654 178.916 51.4267 178.755 51.6541C178.593 51.8815 178.364 52.061 178.07 52.1867C177.777 52.3124 177.438 52.3782 177.057 52.3782H176.06C175.459 52.3782 174.985 52.2047 174.637 51.8576L174.641 51.8596Z" fill="white"></path><path d="M122.68 32.0509C121.168 31.1971 119.999 29.9922 119.173 28.4382C118.347 26.8843 117.934 25.0849 117.934 23.0422V3.59665H122.848V22.9585C122.848 24.7797 123.31 26.2419 124.234 27.3471C125.158 28.4542 126.376 29.0068 127.889 29.0068H132.383C133.923 29.0068 135.162 28.4542 136.099 27.3471C137.037 26.2419 137.506 24.7777 137.506 22.9585V3.59665H142.419V23.0422C142.419 25.0869 141.998 26.8843 141.158 28.4382C140.318 29.9922 139.141 31.1971 137.631 32.0509C136.119 32.9047 134.37 33.3316 132.381 33.3316H127.887C125.926 33.3316 124.19 32.9047 122.678 32.0509H122.68Z" fill="white"></path><path d="M157.875 30.8121C156.195 29.1325 155.355 26.8364 155.355 23.924H160.185C160.185 25.4919 160.598 26.7307 161.424 27.6403C162.249 28.55 163.391 29.0048 164.847 29.0048H169.509C170.881 29.0048 171.986 28.7036 172.826 28.1011C173.666 27.4987 174.087 26.7087 174.087 25.7273V23.8801C174.087 23.124 173.794 22.4937 173.205 21.991C172.617 21.4863 171.777 21.1372 170.686 20.9417L163.041 19.6391C160.662 19.2481 158.834 18.4641 157.562 17.2872C156.287 16.1122 155.651 14.6141 155.651 12.7928V10.4828C155.651 9.0545 156.036 7.79577 156.806 6.7026C157.576 5.61143 158.661 4.76363 160.061 4.16119C161.462 3.55876 163.085 3.25754 164.933 3.25754H169.678C171.414 3.25754 172.946 3.61461 174.276 4.32876C175.605 5.04291 176.634 6.05828 177.362 7.37287C178.09 8.68946 178.453 10.2015 178.453 11.9091H173.666C173.666 10.6224 173.295 9.57915 172.553 8.78122C171.811 7.98329 170.851 7.58432 169.676 7.58432H164.931C163.614 7.58432 162.557 7.87158 161.759 8.44609C160.961 9.0206 160.562 9.79659 160.562 10.776V12.2881C160.562 13.0721 160.841 13.7224 161.402 14.2411C161.962 14.7597 162.774 15.1028 163.837 15.2704L171.482 16.6149C173.889 17.0358 175.744 17.8118 177.047 18.9449C178.35 20.0779 179 21.5282 179 23.2916V26.0205C179 27.4488 178.607 28.7155 177.825 29.8207C177.041 30.9278 175.936 31.7876 174.508 32.404C173.079 33.0204 171.442 33.3276 169.594 33.3276H164.765C161.852 33.3276 159.556 32.4878 157.877 30.8081L157.875 30.8121Z" fill="white"></path><defs><linearGradient id="paint0_linear_67_177" x1="68.9154" y1="39.2243" x2="110.089" y2="-1.94893" gradientUnits="userSpaceOnUse"><stop stop-color="#FF1F6A"></stop><stop offset="0.47" stop-color="#290DE0"></stop><stop offset="0.99" stop-color="#870FFF"></stop></linearGradient><linearGradient id="paint1_linear_67_177" x1="68.9154" y1="39.2243" x2="110.089" y2="-1.94895" gradientUnits="userSpaceOnUse"><stop stop-color="#FF1F6A"></stop><stop offset="0.47" stop-color="#290DE0"></stop><stop offset="0.99" stop-color="#870FFF"></stop></linearGradient></defs></svg>